<svg id="レイヤー_1" data-name="レイヤー 1" xmlns="http://www.w3.org/2000/svg" xmlns:xlink="http://www.w3.org/1999/xlink" viewBox="0 0 372.36 145.16"><defs><style>.cls-1{fill:url(#linear-gradient);}.cls-2{fill:url(#linear-gradient-2);}.cls-3{fill:url(#linear-gradient-3);}.cls-4{fill:url(#linear-gradient-4);}.cls-5{fill:url(#linear-gradient-5);}.cls-6{fill:#231815;}.cls-7{fill:#fbda2d;}</style><linearGradient id="linear-gradient" x1="242.33" y1="731.64" x2="452.36" y2="731.64" gradientTransform="translate(66.62 -226.24) scale(0.43 0.42)" gradientUnits="userSpaceOnUse"><stop offset="0" stop-color="#fff"/><stop offset="1" stop-color="#7eb1c9"/></linearGradient><linearGradient id="linear-gradient-2" x1="220.55" y1="483.89" x2="519.92" y2="589.22" gradientTransform="translate(135.65 -136.88) scale(0.33)" xlink:href="#linear-gradient"/><linearGradient id="linear-gradient-3" x1="291.91" y1="777.91" x2="548.79" y2="777.91" xlink:href="#linear-gradient"/><linearGradient id="linear-gradient-4" x1="497.47" y1="692.95" x2="717.39" y2="692.95" xlink:href="#linear-gradient"/><linearGradient id="linear-gradient-5" x1="419.41" y1="544.52" x2="609.3" y2="669.26" gradientTransform="translate(66.2 -177.12) scale(0.44)" xlink:href="#linear-gradient"/></defs><title>prodigylogo</title><path class="cls-1" d="M239.34,67.51c-2.55-11.34-13.9-19.89-27.54-19.89-15.51,0-28.08,11.07-28.08,24.71a21.81,21.81,0,0,0,.45,4.37c-8.35,4.21-13.92,11.74-13.92,20.33,0,13.19,13.09,23.87,29.24,23.87,9.7,0,18.3-3.86,23.62-9.8a23.9,23.9,0,1,0,16.23-43.59Z" transform="translate(-1.51 -2.46)"/><path class="cls-2" d="M321.1,33.43c0-11-10.73-20-24-20a28.31,28.31,0,0,0-8.89,1.43A23.12,23.12,0,0,0,267.6,2.46c-12.74,0-23.06,10-23.06,22.35a21.3,21.3,0,0,0,.84,5.9c-15.29.23-27.59,9.77-27.59,21.55s12.59,21.56,28.13,21.56a35.21,35.21,0,0,0,11.71-2c4.81,6.81,13.66,11.38,23.8,11.38,15.29,0,27.68-10.35,27.68-23.13a19.82,19.82,0,0,0-2-8.52C315.37,48.41,321.1,41.49,321.1,33.43Z" transform="translate(-1.51 -2.46)"/><path class="cls-3" d="M294.35,116.76a26,26,0,0,0,.91-6.78c0-10.32-6.14-19.49-15.67-25.38a20.54,20.54,0,0,0,.23-2.85c0-11.91-10.64-21.57-23.76-21.57S232.3,69.84,232.3,81.75c0,.46,0,.91.07,1.37a37.37,37.37,0,0,0-11.91,9.56,28.29,28.29,0,0,0-6.38-.74c-12.47,0-22.58,8.08-22.58,18s10.11,18,22.58,18a27.72,27.72,0,0,0,6.38-.74c7.21,8.93,19.83,14.86,34.21,14.86a50.55,50.55,0,0,0,9.15-.83,23.4,23.4,0,0,0,16.4,6.32c11.81,0,21.38-7.9,21.38-17.64C301.6,124.71,298.78,120,294.35,116.76Z" transform="translate(-1.51 -2.46)"/><path class="cls-4" d="M373.87,60.39c0-6.93-8.87-12.55-19.8-12.55a29.61,29.61,0,0,0-8.3,1.17c-3.71-9.91-12.25-16.85-22.2-16.85-11.36,0-20.89,9-23.46,21.21-11.41.41-20.5,8.47-20.5,18.39,0,10.18,9.57,18.43,21.39,18.43a24.31,24.31,0,0,0,8.52-1.53,8.42,8.42,0,0,0-.6,3.1c0,6.5,7.44,11.76,16.62,11.76,8.86,0,16.08-4.89,16.59-11.07,11.6-.85,20.65-8,20.65-16.77a12.41,12.41,0,0,0-.63-3.84C369.06,69.88,373.87,65.49,373.87,60.39Z" transform="translate(-1.51 -2.46)"/><path class="cls-5" d="M359.33,116.39c-1.86,0-10.13-13.62-13.44-13.62-2.6,0-3.93,2.8-7,4a16.22,16.22,0,0,0,.1-1.72c0-6.82-4.3-12.78-10.7-16.08a21,21,0,0,0-11.87-14.45,18.93,18.93,0,0,0,.41-3.86c0-11.26-9.75-20.4-21.79-20.4-11.48,0-20.87,8.33-21.7,18.89-.42,0-.84-.07-1.27-.07-13.78,0-24.95,10.54-24.95,23.53s11.17,23.53,24.95,23.53a26.85,26.85,0,0,0,4-.33,13.27,13.27,0,0,0-.48,3.47c0,8.66,8.34,15.68,18.62,15.68,8.56,0,15.75-4.88,17.93-11.51a25.6,25.6,0,0,0,17-2.79,7,7,0,0,0,4.27,1.89c4.33,0,9.72-6.48,13.44-6.48s10.12,7.77,14.47,7.77,9.71-10.69,9.71-10.69S361.19,116.39,359.33,116.39Z" transform="translate(-1.51 -2.46)"/><path class="cls-6" d="M7.89,129.27h.76a1.28,1.28,0,0,1,1,.32,1.2,1.2,0,0,1,.27.79,1.06,1.06,0,0,1-.31.78,1.53,1.53,0,0,1-1.08.3H7.89v-2.19m-2.66,7.84H7.89v-3.65H9.34a3.08,3.08,0,0,0,2.39-.85,3.26,3.26,0,0,0,.78-2.32,3.19,3.19,0,0,0-.72-2.24,2.77,2.77,0,0,0-2.16-.79H5.23Z" transform="translate(-1.51 -2.46)"/><path class="cls-6" d="M16.58,129.25h1.17a1.45,1.45,0,0,1,1,.26,1,1,0,0,1,.26.73,1,1,0,0,1-.16.57.75.75,0,0,1-.44.31,3.3,3.3,0,0,1-.7.13H16.58v-2m0,7.86v-4h.23a1.06,1.06,0,0,1,.66.23,2.14,2.14,0,0,1,.48.76l1.41,3h3l-1.3-2.84a3.37,3.37,0,0,0-.37-.62,2.35,2.35,0,0,0-.42-.51,2.19,2.19,0,0,0-.68-.37,2.89,2.89,0,0,0,.93-.39,2.63,2.63,0,0,0,.84-1,3.38,3.38,0,0,0-.09-3,2,2,0,0,0-1.05-.9,5.67,5.67,0,0,0-1.88-.24H13.92v9.85Z" transform="translate(-1.51 -2.46)"/><path class="cls-6" d="M25.8,130.05a1.51,1.51,0,0,1,1.29-.65,1.58,1.58,0,0,1,1.33.64,3.4,3.4,0,0,1,.49,2,4.13,4.13,0,0,1-.47,2.3,1.68,1.68,0,0,1-2.64,0,5,5,0,0,1,0-4.3m-2.54,5a3.84,3.84,0,0,0,1.54,1.68,4.93,4.93,0,0,0,2.4.53,4.32,4.32,0,0,0,2.38-.61,4,4,0,0,0,1.47-1.73,6.93,6.93,0,0,0,.5-2.83,5.45,5.45,0,0,0-1.15-3.7,4.19,4.19,0,0,0-3.31-1.32,4.05,4.05,0,0,0-3.25,1.35,5.46,5.46,0,0,0-1.17,3.75A6.15,6.15,0,0,0,23.26,135.07Z" transform="translate(-1.51 -2.46)"/><polygon class="cls-6" points="31.48 124.8 38.02 124.8 38.02 126.92 34.15 126.92 34.15 128.63 37.46 128.63 37.46 130.63 34.15 130.63 34.15 134.65 31.48 134.65 31.48 124.8"/><polygon class="cls-6" points="39.44 124.8 46.56 124.8 46.56 126.91 42.1 126.91 42.1 128.47 46.23 128.47 46.23 130.47 42.1 130.47 42.1 132.41 46.69 132.41 46.69 134.65 39.44 134.65 39.44 124.8"/><path class="cls-6" d="M49.14,133.86l2.52-.19a2.4,2.4,0,0,0,.34,1.07,1.34,1.34,0,0,0,1.18.6,1.17,1.17,0,0,0,.88-.31.91.91,0,0,0,.31-.7,1,1,0,0,0-.3-.69,3.36,3.36,0,0,0-1.36-.57,5.45,5.45,0,0,1-2.49-1.19,2.57,2.57,0,0,1-.75-1.9,2.83,2.83,0,0,1,.39-1.44A2.66,2.66,0,0,1,51,127.47a4.93,4.93,0,0,1,2.12-.38,3.86,3.86,0,0,1,2.5.7,3.2,3.2,0,0,1,1,2.23l-2.49.17a1.65,1.65,0,0,0-.42-1,1.26,1.26,0,0,0-.89-.3,1,1,0,0,0-.7.22.75.75,0,0,0-.24.55.53.53,0,0,0,.2.42,1.94,1.94,0,0,0,.89.37,10.61,10.61,0,0,1,2.49.86,2.87,2.87,0,0,1,1.09,1.1,3.05,3.05,0,0,1,.34,1.46,3.54,3.54,0,0,1-.45,1.75,3,3,0,0,1-1.28,1.21,4.68,4.68,0,0,1-2.07.41,3.88,3.88,0,0,1-3-1A4.12,4.12,0,0,1,49.14,133.86Z" transform="translate(-1.51 -2.46)"/><path class="cls-6" d="M57.79,133.86l2.52-.19a2.28,2.28,0,0,0,.34,1.07,1.33,1.33,0,0,0,1.17.6,1.19,1.19,0,0,0,.89-.31,1,1,0,0,0,.31-.7,1,1,0,0,0-.3-.69,3.43,3.43,0,0,0-1.36-.57,5.39,5.39,0,0,1-2.49-1.19,2.57,2.57,0,0,1-.75-1.9,2.92,2.92,0,0,1,.38-1.44,2.75,2.75,0,0,1,1.16-1.07,4.88,4.88,0,0,1,2.11-.38,3.87,3.87,0,0,1,2.51.7,3.24,3.24,0,0,1,1,2.23l-2.49.17a1.65,1.65,0,0,0-.42-1,1.26,1.26,0,0,0-.89-.3,1.06,1.06,0,0,0-.71.22.78.78,0,0,0-.23.55.55.55,0,0,0,.19.42,2,2,0,0,0,.89.37,10.73,10.73,0,0,1,2.5.86,2.87,2.87,0,0,1,1.09,1.1,3.05,3.05,0,0,1,.34,1.46,3.55,3.55,0,0,1-.46,1.75,3,3,0,0,1-1.27,1.21,4.68,4.68,0,0,1-2.07.41,3.86,3.86,0,0,1-3-1A4.12,4.12,0,0,1,57.79,133.86Z" transform="translate(-1.51 -2.46)"/><rect class="cls-6" x="65.5" y="124.8" width="2.65" height="9.85"/><path class="cls-6" d="M74.36,130.05a1.52,1.52,0,0,1,1.3-.65A1.56,1.56,0,0,1,77,130a3.33,3.33,0,0,1,.49,2,4,4,0,0,1-.47,2.3,1.54,1.54,0,0,1-1.32.63,1.56,1.56,0,0,1-1.32-.65,5,5,0,0,1,0-4.3m-2.54,5a3.89,3.89,0,0,0,1.54,1.68,5,5,0,0,0,2.4.53,4.33,4.33,0,0,0,2.39-.61,3.88,3.88,0,0,0,1.46-1.73,6.76,6.76,0,0,0,.51-2.83,5.45,5.45,0,0,0-1.16-3.7,4.15,4.15,0,0,0-3.3-1.32,4.09,4.09,0,0,0-3.26,1.35,5.51,5.51,0,0,0-1.17,3.75A6.28,6.28,0,0,0,71.82,135.07Z" transform="translate(-1.51 -2.46)"/><polygon class="cls-6" points="80.05 124.8 82.52 124.8 85.75 130.26 85.75 124.8 88.24 124.8 88.24 134.65 85.75 134.65 82.54 129.23 82.54 134.65 80.05 134.65 80.05 124.8"/><path class="cls-6" d="M94.24,133.35l.93-3.54.94,3.54H94.24m2.85,3.76h2.78l-3.21-9.85H93.74l-3.2,9.85h2.71l.41-1.63h3Z" transform="translate(-1.51 -2.46)"/><polygon class="cls-6" points="99.2 124.8 101.85 124.8 101.85 132.22 105.99 132.22 105.99 134.65 99.2 134.65 99.2 124.8"/><path class="cls-6" d="M108.23,133.86l2.53-.19a2.29,2.29,0,0,0,.33,1.07,1.33,1.33,0,0,0,1.18.6,1.17,1.17,0,0,0,.88-.31,1,1,0,0,0,.31-.7.94.94,0,0,0-.31-.69,3.23,3.23,0,0,0-1.35-.57,5.45,5.45,0,0,1-2.49-1.19,2.57,2.57,0,0,1-.75-1.9,2.92,2.92,0,0,1,.38-1.44,2.8,2.8,0,0,1,1.16-1.07,4.92,4.92,0,0,1,2.11-.38,3.87,3.87,0,0,1,2.51.7,3.2,3.2,0,0,1,1,2.23l-2.49.17a1.65,1.65,0,0,0-.42-1,1.26,1.26,0,0,0-.89-.3,1,1,0,0,0-.7.22.75.75,0,0,0-.24.55.53.53,0,0,0,.2.42,1.94,1.94,0,0,0,.89.37,10.61,10.61,0,0,1,2.49.86,2.8,2.8,0,0,1,1.09,1.1,3.05,3.05,0,0,1,.34,1.46,3.44,3.44,0,0,1-.46,1.75,2.91,2.91,0,0,1-1.27,1.21,4.65,4.65,0,0,1-2.07.41,3.86,3.86,0,0,1-3-1A4.12,4.12,0,0,1,108.23,133.86Z" transform="translate(-1.51 -2.46)"/><path class="cls-6" d="M124.14,130.05a1.51,1.51,0,0,1,1.29-.65,1.55,1.55,0,0,1,1.32.64,3.33,3.33,0,0,1,.5,2,4.13,4.13,0,0,1-.47,2.3,1.57,1.57,0,0,1-1.33.63,1.55,1.55,0,0,1-1.31-.65,5,5,0,0,1,0-4.3m-2.54,5a3.84,3.84,0,0,0,1.54,1.68,4.9,4.9,0,0,0,2.4.53,4.32,4.32,0,0,0,2.38-.61,3.9,3.9,0,0,0,1.47-1.73,6.92,6.92,0,0,0,.51-2.83,5.4,5.4,0,0,0-1.17-3.7,4.15,4.15,0,0,0-3.3-1.32,4.05,4.05,0,0,0-3.25,1.35,5.46,5.46,0,0,0-1.17,3.75A6.15,6.15,0,0,0,121.6,135.07Z" transform="translate(-1.51 -2.46)"/><polygon class="cls-6" points="129.82 124.8 136.37 124.8 136.37 126.92 132.48 126.92 132.48 128.63 135.8 128.63 135.8 130.63 132.48 130.63 132.48 134.65 129.82 134.65 129.82 124.8"/><path class="cls-6" d="M146.64,129.5a1.77,1.77,0,0,1,1.48.57,3.7,3.7,0,0,1,.44,2.15,5.14,5.14,0,0,1-.2,1.71,1.41,1.41,0,0,1-.54.73,2.38,2.38,0,0,1-1.19.21H146V129.5h.66m-3.32,7.61h4a5.36,5.36,0,0,0,1.58-.26,2.68,2.68,0,0,0,1.19-.79,4.14,4.14,0,0,0,.87-1.46,7.44,7.44,0,0,0,.32-2.45,8.4,8.4,0,0,0-.22-1.91,4.43,4.43,0,0,0-.68-1.58,3.18,3.18,0,0,0-1.18-1,4.23,4.23,0,0,0-1.88-.36h-4Z" transform="translate(-1.51 -2.46)"/><rect class="cls-6" x="151.2" y="124.8" width="2.65" height="9.85"/><path class="cls-6" d="M161.59,133.54v-2h4.09v4.2A7.87,7.87,0,0,1,163.6,137a6.27,6.27,0,0,1-2.15.33,4.66,4.66,0,0,1-2.49-.59,4,4,0,0,1-1.5-1.79,6.62,6.62,0,0,1-.53-2.71,6.46,6.46,0,0,1,.58-2.81,4,4,0,0,1,1.7-1.81,4.92,4.92,0,0,1,2.35-.48,6.05,6.05,0,0,1,2.14.29,2.85,2.85,0,0,1,1.17.92,4.43,4.43,0,0,1,.7,1.58l-2.56.52a1.65,1.65,0,0,0-.54-.85,1.54,1.54,0,0,0-1-.3,1.67,1.67,0,0,0-1.39.7,5,5,0,0,0,0,4.48,1.74,1.74,0,0,0,1.46.69,2.51,2.51,0,0,0,.86-.15,4.78,4.78,0,0,0,.92-.5v-.93Z" transform="translate(-1.51 -2.46)"/><rect class="cls-6" x="165.84" y="124.8" width="2.65" height="9.85"/><polygon class="cls-6" points="169.79 124.8 177.84 124.8 177.84 127.23 175.14 127.23 175.14 134.65 172.5 134.65 172.5 127.23 169.79 127.23 169.79 124.8"/><path class="cls-6" d="M182.58,133.35l.94-3.54.93,3.54h-1.87m2.85,3.76h2.78l-3.2-9.85h-2.93l-3.2,9.85h2.71l.41-1.63h3Z" transform="translate(-1.51 -2.46)"/><polygon class="cls-6" points="187.55 124.8 190.19 124.8 190.19 132.22 194.33 132.22 194.33 134.65 187.55 134.65 187.55 124.8"/><polygon class="cls-6" points="198.92 124.8 206.97 124.8 206.97 127.23 204.27 127.23 204.27 134.65 201.63 134.65 201.63 127.23 198.92 127.23 198.92 124.8"/><polygon class="cls-6" points="208.16 124.8 215.28 124.8 215.28 126.91 210.82 126.91 210.82 128.47 214.96 128.47 214.96 130.47 210.82 130.47 210.82 132.41 215.41 132.41 215.41 134.65 208.16 134.65 208.16 124.8"/><path class="cls-6" d="M224,133.08l2.32.8a5.28,5.28,0,0,1-.74,1.88,3.39,3.39,0,0,1-1.25,1.14,4.17,4.17,0,0,1-1.9.38,4.92,4.92,0,0,1-2.28-.46,4,4,0,0,1-1.53-1.64,6.41,6.41,0,0,1-.64-3,5.63,5.63,0,0,1,1.13-3.76,4,4,0,0,1,3.2-1.31,3.93,3.93,0,0,1,2.55.75,4.37,4.37,0,0,1,1.37,2.32l-2.33.6a2.29,2.29,0,0,0-.26-.66,1.64,1.64,0,0,0-.54-.54,1.38,1.38,0,0,0-.71-.19,1.51,1.51,0,0,0-1.39.83,4,4,0,0,0-.36,1.94,4.18,4.18,0,0,0,.43,2.24,1.4,1.4,0,0,0,1.22.61,1.35,1.35,0,0,0,1.14-.49A3.06,3.06,0,0,0,224,133.08Z" transform="translate(-1.51 -2.46)"/><polygon class="cls-6" points="226.15 124.8 228.8 124.8 228.8 128.24 231.68 128.24 231.68 124.8 234.35 124.8 234.35 134.65 231.68 134.65 231.68 130.66 228.8 130.66 228.8 134.65 226.15 134.65 226.15 124.8"/><polygon class="cls-6" points="236.12 124.8 238.6 124.8 241.83 130.26 241.83 124.8 244.32 124.8 244.32 134.65 241.83 134.65 238.62 129.23 238.62 134.65 236.12 134.65 236.12 124.8"/><path class="cls-6" d="M250.39,130.05a1.54,1.54,0,0,1,1.3-.65A1.61,1.61,0,0,1,253,130a3.48,3.48,0,0,1,.48,2,4.13,4.13,0,0,1-.47,2.3,1.56,1.56,0,0,1-1.32.63,1.57,1.57,0,0,1-1.32-.65,5.06,5.06,0,0,1,0-4.3m-2.54,5a3.8,3.8,0,0,0,1.55,1.68,4.9,4.9,0,0,0,2.4.53,4.36,4.36,0,0,0,2.38-.61,4,4,0,0,0,1.46-1.73,6.77,6.77,0,0,0,.5-2.83,5.45,5.45,0,0,0-1.15-3.7,4.15,4.15,0,0,0-3.3-1.32,4.08,4.08,0,0,0-3.26,1.35,5.46,5.46,0,0,0-1.17,3.75A6.15,6.15,0,0,0,247.85,135.07Z" transform="translate(-1.51 -2.46)"/><polygon class="cls-6" points="256.06 124.8 258.7 124.8 258.7 132.22 262.84 132.22 262.84 134.65 256.06 134.65 256.06 124.8"/><path class="cls-6" d="M268.15,130.05a1.51,1.51,0,0,1,1.29-.65,1.58,1.58,0,0,1,1.33.64,3.41,3.41,0,0,1,.48,2,4,4,0,0,1-.47,2.3,1.67,1.67,0,0,1-2.63,0,5,5,0,0,1,0-4.3m-2.54,5a3.84,3.84,0,0,0,1.54,1.68,5,5,0,0,0,2.4.53,4.38,4.38,0,0,0,2.39-.61,3.88,3.88,0,0,0,1.46-1.73,6.77,6.77,0,0,0,.5-2.83,5.4,5.4,0,0,0-1.16-3.7,4.14,4.14,0,0,0-3.3-1.32,4.07,4.07,0,0,0-3.25,1.35,5.46,5.46,0,0,0-1.18,3.75A6.15,6.15,0,0,0,265.61,135.07Z" transform="translate(-1.51 -2.46)"/><path class="cls-6" d="M279.65,133.54v-2h4.09v4.2a7.9,7.9,0,0,1-2.09,1.26,6.21,6.21,0,0,1-2.14.33,4.64,4.64,0,0,1-2.49-.59,3.92,3.92,0,0,1-1.5-1.79,6.46,6.46,0,0,1-.53-2.71,6.32,6.32,0,0,1,.58-2.81,3.93,3.93,0,0,1,1.7-1.81,4.92,4.92,0,0,1,2.35-.48,6,6,0,0,1,2.13.29,2.85,2.85,0,0,1,1.17.92,4.1,4.1,0,0,1,.7,1.58l-2.56.52a1.59,1.59,0,0,0-.54-.85,1.49,1.49,0,0,0-1-.3,1.67,1.67,0,0,0-1.39.7,5,5,0,0,0,0,4.48,1.74,1.74,0,0,0,1.46.69,2.41,2.41,0,0,0,.85-.15,4.82,4.82,0,0,0,.93-.5v-.93Z" transform="translate(-1.51 -2.46)"/><polygon class="cls-6" points="282.93 124.8 285.88 124.8 287.6 128.1 289.33 124.8 292.26 124.8 288.92 130.52 288.92 134.65 286.27 134.65 286.27 130.52 282.93 124.8"/><polygon class="cls-6" points="237.9 58.81 259.45 96.23 257.49 119.45 280.68 119.45 280.68 94.5 296.69 57.08 275.78 57.08 268.27 80.29 258.47 55.69 237.9 58.81"/><path class="cls-6" d="M283.19,122.91H257.92l2-24L237.82,60.5l22.79-3.45,9.08,22.77,6.88-21.28H299.7L283.19,97.17Zm-23.11-2H281.2V96.76l15.49-36.23H278l-8.14,25.16L259.35,59.25,241,62l21,36.44Z" transform="translate(-1.51 -2.46)"/><path class="cls-6" d="M258,79.3s-5.08-20.42-26.08-20.42S204.53,76,204.53,90.34s6.68,31.46,27.68,31.46c30.22,0,27-33.8,27-33.8l-25.13,1.34v9l6.37.34s-2.7,5.34-8,5.34c-6.15,0-10.49-4.34-10.49-12.37,0-5.69,2.86-12.72,8.59-13.39,5.46-.64,9.7,3.85,9.7,3.85Z" transform="translate(-1.51 -2.46)"/><path class="cls-6" d="M232.21,122.79c-9.9,0-17.47-3.62-22.53-10.75-4-5.6-6.14-13.31-6.14-21.7,0-15.69,7.44-32.45,28.35-32.45,21.52,0,27,21,27.05,21.17l.26,1L240,83.2l-.36-.38s-4-4.11-8.87-3.54S223,86,223,91.68c0,7.12,3.55,11.38,9.5,11.38a8.06,8.06,0,0,0,6.17-3.45l-5.57-.29V88.39l27-1.43.08,1c.07.67,1.47,16.73-7.8,26.91C247.62,120.11,240.81,122.79,232.21,122.79Zm-.32-62.91c-6.19,0-26.36,2.19-26.36,30.46,0,14.73,7,30.46,26.68,30.46,8,0,14.33-2.46,18.75-7.32,7.44-8.17,7.5-20.88,7.35-24.43l-23.2,1.23v7.15l6.94.36-.69,1.36c-.12.25-3,5.9-8.84,5.9-7.08,0-11.48-5.12-11.48-13.37,0-6.44,3.31-13.66,9.46-14.38,5-.58,8.93,2.64,10.16,3.78l16-2.59C255.36,74.39,249.39,59.88,231.89,59.88Z" transform="translate(-1.51 -2.46)"/><polygon class="cls-6" points="185.12 58.28 189.87 119.41 209.88 117.74 208.45 58.28 185.12 58.28"/><path class="cls-6" d="M190.47,122.94l-4.92-63.2h25.38l1.48,61.37ZM187.7,61.73l4.6,59.06,18.07-1.51L209,61.73Z" transform="translate(-1.51 -2.46)"/><path class="cls-6" d="M148.14,60.18l4.26,59.94s42.16-.39,42.16-32.87-46.42-27.07-46.42-27.07m20.71,36.57-.91-16.15s9.87-1.46,9.87,7.29S168.85,96.75,168.85,96.75Z" transform="translate(-1.51 -2.46)"/><path class="cls-6" d="M151.47,121.12,147.08,59.3l.95-.11a78.49,78.49,0,0,1,14.63,0c7.48.67,17.87,2.78,24.88,9,5.32,4.72,8,11.14,8,19.06,0,33.09-42.71,33.86-43.15,33.87Zm-2.27-60,4.12,58a65.85,65.85,0,0,0,19.84-4.17c13.54-5.35,20.4-14.66,20.4-27.67,0-7.33-2.47-13.24-7.33-17.57C174.94,59.63,153.91,60.7,149.2,61.08Zm18.71,36.67-1-18,.9-.13c.21,0,5.25-.74,8.47,2a7.83,7.83,0,0,1,2.54,6.24c0,7.71-6.51,9.81-9.95,9.85ZM169,81.51l.79,14.16c2.13-.3,7-1.65,7-7.78A6,6,0,0,0,175,83.15C173.14,81.58,170.4,81.46,169,81.51Z" transform="translate(-1.51 -2.46)"/><path class="cls-6" d="M126.38,59.47c-14.77,0-25.74,11.8-25.74,28.48s11,32.55,26.16,32.55S154.65,107.07,154.65,92s-5.07-32.55-28.27-32.55m2.48,40.61c-4.72,0-8.13-5.35-8.13-11s3.41-9.62,8-9.62c7.2,0,8.78,5.91,8.78,11S133.58,100.08,128.86,100.08Z" transform="translate(-1.51 -2.46)"/><path class="cls-6" d="M126.8,121.5c-7.47,0-14.42-3.7-19.57-10.41A38.7,38.7,0,0,1,99.64,88c0-17.08,11.25-29.48,26.74-29.48,13.35,0,29.26,5.82,29.26,33.55C155.64,108,142.43,121.5,126.8,121.5Zm-.42-61C112,60.46,101.63,72,101.63,88c0,15.24,10.12,31.56,25.17,31.56,14.3,0,26.85-12.85,26.85-27.49C153.65,77.62,148.92,60.46,126.38,60.46Zm2.48,40.62c-5.63,0-9.12-6.22-9.12-12,0-6.15,3.78-10.61,9-10.61,6.3,0,9.77,4.26,9.77,12C138.5,96.22,134.08,101.08,128.86,101.08Zm-.13-20.61c-4.06,0-7,3.62-7,8.62,0,4.83,2.86,10,7.13,10,4.07,0,7.65-4,7.65-8.62C136.51,83.83,133.89,80.47,128.73,80.47Z" transform="translate(-1.51 -2.46)"/><path class="cls-6" d="M112.86,119,99.59,94.1c6.07-4.7,10.72-11.47,10.22-21.11-.91-17.55-44.37-14.68-44.37-14.68l-5,62.88,21-1,.38-17.62c.83-.23,1.72-.49,2.64-.8l9.16,20L112.86,119M82.4,73.54c3.89-1.06,8.12-1,8.12,4.49,0,5.66-4.48,7.72-8.41,8.43Z" transform="translate(-1.51 -2.46)"/><path class="cls-6" d="M93,122.83,83.87,103l-1.12.34-.39,17.81-23,1.09,5.17-64.86.86-.06c1.24-.08,30.63-1.9,41.44,7.71a11,11,0,0,1,4,7.91c.44,8.5-2.9,15.7-9.94,21.43l13.54,25.45Zm-8-22.27,9.23,20.09,17.14-2.4-13-24.42.66-.51c7-5.39,10.25-12.21,9.84-20.28a9.08,9.08,0,0,0-3.32-6.53C96.29,58.33,71.31,59,66.36,59.26l-4.85,60.88,18.9-.89.38-17.43.71-.2c.82-.22,1.69-.48,2.6-.78Zm-3.85-12.9.33-14.88.72-.2c3.28-.89,5.77-.71,7.38.52,1.33,1,2,2.68,2,4.93,0,5-3.28,8.33-9.23,9.41Zm2.28-13.34-.23,10.9c4.24-1.08,6.39-3.49,6.39-7.19a4,4,0,0,0-1.22-3.35C87.33,73.93,85.63,73.81,83.37,74.32Z" transform="translate(-1.51 -2.46)"/><path class="cls-6" d="M72.39,57.25C69.85,27.68,5.24,38.53,5.24,38.53l-2.7,84.82,35.11-2.69L36.28,101c18-5.13,38.26-18.7,36.11-43.78m-38,20-.77-18.12c8.3.25,15.51-.47,15.87,5.59C49.73,69.48,44.13,74.7,34.34,77.23Z" transform="translate(-1.51 -2.46)"/><path class="cls-6" d="M1.51,124.43,4.27,37.69l.8-.14c1.77-.29,43.58-7.13,61,6.34a18.23,18.23,0,0,1,7.34,13.28h0a36.8,36.8,0,0,1-10.8,30.15c-6.22,6.32-15.16,11.43-25.25,14.44l1.38,19.81Zm4.7-85L3.57,122.27l33-2.53L35.23,100.3l.78-.22C71.38,90,72,64.81,71.4,57.34h0a16.36,16.36,0,0,0-6.58-11.88C49.39,33.51,12.15,38.5,6.21,39.39ZM33.4,78.51l-.87-20.42,1.07,0,3,.06c6.95.11,13.5.22,13.88,6.46.33,5.57-6,11-15.85,13.56Zm1.21-18.37.67,15.8c8.07-2.37,13.43-6.87,13.17-11.18S44,60.29,36.53,60.17Z" transform="translate(-1.51 -2.46)"/><polygon class="cls-7" points="244.67 51.76 266.22 89.19 264.26 112.41 287.45 112.41 287.45 87.46 303.46 50.03 282.55 50.03 275.04 73.25 265.24 48.65 244.67 51.76"/><path class="cls-6" d="M290.45,116.36h-26.3L266.2,92,243.8,53.08l23.9-3.63,8.71,21.86L283,51h24.25L290.45,90.23Zm-23.06-3h20.08V89.61L302.71,54H285.15L276.7,80.11,265.8,52.76l-17.24,2.61,20.7,35.94Z" transform="translate(-1.51 -2.46)"/><path class="cls-7" d="M264.74,72.25s-5.09-20.41-26.08-20.41S211.3,68.91,211.3,83.3,218,114.75,239,114.75c30.22,0,27-33.79,27-33.79l-25.14,1.33v9l6.36.33s-2.7,5.36-8,5.36c-6.15,0-10.5-4.35-10.5-12.38,0-5.69,2.87-12.72,8.59-13.39,5.46-.64,9.7,3.85,9.7,3.85Z" transform="translate(-1.51 -2.46)"/><path class="cls-6" d="M239,116.25c-9.93,0-17.86-3.8-22.93-11-4-5.68-6.24-13.49-6.24-22,0-15.93,7.57-32.95,28.85-32.95,21.9,0,27.48,21.33,27.53,21.54l.39,1.58-20,3.22-.54-.57s-3.82-3.93-8.44-3.39c-5,.59-7.28,7.32-7.28,11.91,0,6.81,3.37,10.88,9,10.88A7.11,7.11,0,0,0,244.44,93l-5.05-.27V80.88l28-1.49.13,1.43c.07.68,1.48,17-7.93,27.29C254.66,113.51,247.73,116.25,239,116.25Zm-.32-62.92c-24,0-25.87,22.94-25.87,30,0,14.48,6.88,30,26.19,30,7.87,0,14.05-2.4,18.37-7.14,7-7.68,7.36-19.52,7.25-23.6l-22.23,1.19v6.2l7.24.38-1,2c-.13.25-3.19,6.18-9.29,6.18-7.28,0-12-5.45-12-13.87,0-6.65,3.47-14.12,9.91-14.87,4.94-.58,8.91,2.44,10.36,3.73l15.24-2.45C261.18,66.43,255.11,53.33,238.66,53.33Z" transform="translate(-1.51 -2.46)"/><polygon class="cls-7" points="191.88 51.23 196.65 112.37 216.65 110.69 215.21 51.23 191.88 51.23"/><path class="cls-6" d="M196.78,116.44l-5-64.24h26.41l1.5,62.32ZM195,55.19l4.52,58,17.11-1.43-1.36-56.59Z" transform="translate(-1.51 -2.46)"/><path class="cls-7" d="M154.91,53.13l4.25,60s42.16-.38,42.16-32.88-46.41-27.07-46.41-27.07m20.7,36.58-.9-16.15s9.86-1.46,9.86,7.29S175.61,89.71,175.61,89.71Z" transform="translate(-1.51 -2.46)"/><path class="cls-6" d="M157.78,114.59l-4.46-62.78,1.42-.16a78.56,78.56,0,0,1,14.73,0c11,1,19.46,4.07,25.17,9.15,5.42,4.83,8.17,11.37,8.17,19.43,0,33.59-43.2,34.37-43.63,34.38Zm-1.28-60.1,4.05,57a65.45,65.45,0,0,0,19.22-4.12c13.31-5.27,20.06-14.43,20.06-27.21,0-7.18-2.41-13-7.17-17.2C181.86,53.39,162,54.09,156.5,54.49Zm17.7,36.73-1.06-18.94,1.35-.2c.22,0,5.48-.77,8.87,2.15a8.33,8.33,0,0,1,2.71,6.62c0,8.09-6.83,10.31-10.45,10.35ZM176.28,75l.73,13.1c2.21-.41,6.07-1.89,6.07-7.21a5.42,5.42,0,0,0-1.67-4.36A8.18,8.18,0,0,0,176.28,75Z" transform="translate(-1.51 -2.46)"/><path class="cls-7" d="M133.14,52.43c-14.76,0-25.73,11.8-25.73,28.48s11,32.55,26.16,32.55S161.41,100,161.41,85s-5.06-32.54-28.27-32.54M135.62,93c-4.71,0-8.12-5.36-8.12-11s3.41-9.62,8-9.62c7.21,0,8.78,5.91,8.78,11S140.35,93,135.62,93Z" transform="translate(-1.51 -2.46)"/><path class="cls-6" d="M133.57,115c-7.63,0-14.72-3.77-20-10.61a39.12,39.12,0,0,1-7.7-23.43c0-17.37,11.46-30,27.23-30,19.19,0,29.76,12.09,29.76,34C162.9,101.22,149.47,115,133.57,115Zm-.43-61c-14,0-24.24,11.35-24.24,27,0,15,9.91,31.05,24.67,31.05,14,0,26.35-12.61,26.35-27C159.92,70.81,155.27,53.92,133.14,53.92Zm2.48,40.61c-5.3,0-9.61-5.6-9.61-12.48,0-6.44,4-11.11,9.48-11.11,6.63,0,10.27,4.43,10.27,12.48C145.76,89.44,141.12,94.53,135.62,94.53Zm-.13-20.6c-3.76,0-6.5,3.41-6.5,8.12s2.67,9.5,6.63,9.5,7.16-3.8,7.16-8.13C142.78,81.07,142.78,73.93,135.49,73.93Z" transform="translate(-1.51 -2.46)"/><path class="cls-7" d="M119.62,112,106.36,87.06c6.06-4.71,10.71-11.48,10.22-21.11-.91-17.55-44.37-14.68-44.37-14.68l-5,62.88,21-1,.38-17.6c.83-.24,1.72-.51,2.64-.81l9.15,20L119.62,112M89.16,66.5c3.9-1.06,8.13-1,8.13,4.49,0,5.67-4.48,7.72-8.41,8.43Z" transform="translate(-1.51 -2.46)"/><path class="cls-6" d="M99.44,116.33,90.37,96.56l-.37.11-.38,17.91-24,1.14,5.24-65.85,1.29-.09c1.25-.08,30.84-1.91,41.81,7.83a11.61,11.61,0,0,1,4.15,8.26c.44,8.53-2.86,15.79-9.82,21.58l13.69,25.73ZM92,92.91l9.25,20.16,16.07-2.26L104.45,86.65l1-.77c6.81-5.28,10-12,9.65-19.86a8.66,8.66,0,0,0-3.15-6.18C103.11,52,79.38,52.46,73.59,52.7l-4.77,59.88,17.87-.85.38-17.32,1.06-.3c.82-.23,1.68-.49,2.58-.79Zm-4.63-11.7.35-15.86,1.07-.29c3.44-.93,6.08-.73,7.82.61,1.46,1.11,2.19,2.9,2.19,5.32,0,5.26-3.42,8.78-9.63,9.89Zm3.28-13.52-.21,9.83C94,76.43,95.8,74.24,95.8,71a3.54,3.54,0,0,0-1-2.95C94,67.43,92.53,67.31,90.63,67.69Z" transform="translate(-1.51 -2.46)"/><path class="cls-7" d="M79.15,50.21C76.62,20.63,12,31.49,12,31.49L9.3,116.3l35.11-2.69L43.05,94c18-5.13,38.25-18.71,36.1-43.78m-38,20-.77-18.12c8.29.25,15.5-.48,15.87,5.59C56.49,62.44,50.9,67.65,41.11,70.19Z" transform="translate(-1.51 -2.46)"/><path class="cls-6" d="M7.76,117.92l2.79-87.7,1.21-.2c1.78-.3,43.79-7.17,61.35,6.44a18.72,18.72,0,0,1,7.53,13.62h0A37.23,37.23,0,0,1,69.7,80.62C63.5,86.93,54.63,92,44.62,95.08L46,115Zm5.7-85.14-2.61,81.91,32-2.45L41.47,92.89l1.17-.33c35-10,35.66-34.85,35-42.22h0a15.63,15.63,0,0,0-6.39-11.52C56.33,27.23,20.49,31.75,13.46,32.78ZM39.7,72.1l-.92-21.57,1.6,0,3,.06c7.18.11,14,.22,14.36,6.93C58,63.38,51.53,69,41.49,71.64Zm2.2-18.5.62,14.64c8.64-2.67,12.39-7.22,12.2-10.5-.22-3.58-3.48-4-11.42-4.12Z" transform="translate(-1.51 -2.46)"/></svg>