<svg id="グループ_905" data-name="グループ 905" xmlns="http://www.w3.org/2000/svg" width="131.689" height="30.918" viewBox="0 0 131.689 30.918">
  <path id="パス_990" data-name="パス 990" d="M131.4,217.007a2.092,2.092,0,0,1-1.11,1.744,13.5,13.5,0,0,1-2.814,1.482,29.636,29.636,0,0,1-3.418,1.127c-1.176.307-4.556.658-5.019.781-.1,1.909-.514,3.966-.624,5.855s-.168,3.783-.168,5.684q0,1.518.075,3t.074,2.963a9.261,9.261,0,0,1-.129,1.462,6.05,6.05,0,0,1-.446,1.5,3.357,3.357,0,0,1-.869,1.184,2.022,2.022,0,0,1-1.371.482,2.164,2.164,0,0,1-1.537-.537,3.642,3.642,0,0,1-.887-1.315,6.474,6.474,0,0,1-.426-1.648,12.573,12.573,0,0,1-.112-1.573q-.072-2.223-.111-4.462t-.037-4.5q0-1.889.021-3.7c.012-1.209.282-2.284.217-3.541-.344.067-3.25.257-3.842.313s-1.195.1-1.809.132c-.491.025-1.135.029-1.938.009a17.132,17.132,0,0,1-2.319-.212,7.436,7.436,0,0,1-1.938-.566,1.255,1.255,0,0,1-.855-1.049,2.347,2.347,0,0,1,1.341-2.016,15.631,15.631,0,0,1,3.607-1.636,45.735,45.735,0,0,1,4.918-1.3q2.709-.569,5.366-.95t4.891-.609q2.236-.228,3.463-.293,1.165-.062,2.487-.075a14.491,14.491,0,0,1,2.5.184,5.67,5.67,0,0,1,1.975.676A1.65,1.65,0,0,1,131.4,217.007Z" transform="translate(-100 -213.352)" fill="#cc4e00"/>
  <path id="パス_991" data-name="パス 991" d="M260.509,271.3a1.864,1.864,0,0,1-.371,1.081,5.11,5.11,0,0,1-1.741,1.167,29.527,29.527,0,0,1-3.034,1.27q-1.667.6-3.223,1.021a9.834,9.834,0,0,1-2.3.424,4.855,4.855,0,0,1-1.223-.19,11.481,11.481,0,0,1-1.407-.481,7.49,7.49,0,0,1-1.278-.672,3.233,3.233,0,0,1-.831-.729,2.38,2.38,0,0,1-.278-.818,14.4,14.4,0,0,1-.223-1.429q-.094-.817-.167-1.738t-.131-1.75c-.036-.557-.061-1.047-.073-1.476s-.017-.739-.017-.934c0-.718.03-1.547.091-2.48a24.619,24.619,0,0,1,.352-2.818,14.993,14.993,0,0,1,.759-2.714,6.68,6.68,0,0,1,1.352-2.2,3.071,3.071,0,0,1,1.036-.554,16.994,16.994,0,0,1,1.834-.554c.7-.176,1.462-.34,2.276-.5s1.6-.287,2.352-.394,1.437-.195,2.056-.264a13.949,13.949,0,0,1,1.406-.1,2.942,2.942,0,0,1,1.055.189,2.647,2.647,0,0,1,.852.511,2.553,2.553,0,0,1,.556.716,1.8,1.8,0,0,1,.2.832,1.449,1.449,0,0,1-.13.642,3.268,3.268,0,0,1-.389.584,5.465,5.465,0,0,1-1.555.9q-1.184.527-2.574,1.037t-2.665.919c-.852.273-1.452.468-1.8.584q-.148.673-.315,1.358a10.714,10.714,0,0,0-.241,1.386,25.063,25.063,0,0,1,2.592-.876,10.063,10.063,0,0,1,2.741-.409q2.629,0,2.629,2.044a1.6,1.6,0,0,1-.239.876,2.549,2.549,0,0,1-.631.671,4.361,4.361,0,0,1-.889.512q-.5.218-.98.423a21.367,21.367,0,0,1-2.481.861q-1.3.365-2.593.715c-.05.156-.1.327-.149.512a2.068,2.068,0,0,0-.073.539,4.548,4.548,0,0,0,.073.818c.05.273.1.545.149.818.3-.078.773-.2,1.425-.379s1.339-.351,2.056-.526,1.406-.325,2.073-.453a8.793,8.793,0,0,1,1.482-.189,2.8,2.8,0,0,1,1.037.189,2.646,2.646,0,0,1,.815.5,2.457,2.457,0,0,1,.536.716A1.816,1.816,0,0,1,260.509,271.3Z" transform="translate(-220.477 -245.701)" fill="#cc4e00"/>
  <path id="パス_992" data-name="パス 992" d="M381.01,232.629q-.122,1.057-.345,2.073a10.965,10.965,0,0,1-.545,1.806,3.466,3.466,0,0,1-.823,1.255,1.626,1.626,0,0,1-1.136.464q-.635,0-1.148-.98a13.439,13.439,0,0,1-.961-2.588q-.452-1.607-.82-3.627t-.661-4.087q-.289-2.07-.482-4.04t-.308-3.423q-.232,1.519-.539,3.391t-.729,3.8q-.416,1.925-.911,3.766a31.368,31.368,0,0,1-1.056,3.272,10.243,10.243,0,0,1-1.2,2.3,1.743,1.743,0,0,1-1.336.863q-.629,0-1.251-.881a11.652,11.652,0,0,1-1.2-2.312,31.97,31.97,0,0,1-1.085-3.174q-.5-1.743-.933-3.5t-.75-3.313c-.212-1.038-.379-1.909-.5-2.608q0,.8-.017,1.764t-.019,1.384q0,.191-.017,1.253t-.123,2.546q-.108,1.483-.319,3.172a21.3,21.3,0,0,1-.617,3.132,9.808,9.808,0,0,1-1,2.424,1.92,1.92,0,0,1-1.457,1.056,2.729,2.729,0,0,1-1.151-1.134,8.229,8.229,0,0,1-.766-1.872,16.764,16.764,0,0,1-.475-2.293q-.171-1.22-.272-2.384t-.118-2.162c-.012-.668-.016-1.209-.016-1.63q0-1.11.118-2.8t.388-3.565q.272-1.873.715-3.769a22.1,22.1,0,0,1,1.077-3.433,10.005,10.005,0,0,1,1.486-2.565,2.958,2.958,0,0,1,1.978-1.154,1.471,1.471,0,0,1,1.134.523,8.1,8.1,0,0,1,1.214,1.57,21.542,21.542,0,0,1,1.188,2.239q.58,1.252,1.11,2.536t.934,2.473q.405,1.188.664,2.025.3-.95.74-2.223t.986-2.663q.543-1.39,1.2-2.76a22.371,22.371,0,0,1,1.383-2.486,10.677,10.677,0,0,1,1.476-1.848,2.626,2.626,0,0,1,1.528-.818,2.824,2.824,0,0,1,2.353.787,7.476,7.476,0,0,1,1.672,2.546,18.556,18.556,0,0,1,1.086,3.66q.4,2.055.627,4.085t.284,3.818q.062,1.783.061,2.88v1.218c0,.515-.007,1.1-.02,1.747s-.048,1.341-.1,2.073S381.091,231.9,381.01,232.629Z" transform="translate(-313.802 -207.382)" fill="#cc4e00"/>
  <path id="パス_993" data-name="パス 993" d="M672.71,218.629c0,.6-.029,1.442-.082,2.541s-.156,2.307-.3,3.624-.358,2.659-.626,4.028a22.411,22.411,0,0,1-1.041,3.713,9.342,9.342,0,0,1-1.546,2.723,2.746,2.746,0,0,1-2.149,1.059,3.527,3.527,0,0,1-2.108-.687,8,8,0,0,1-1.7-1.671,13.252,13.252,0,0,1-1.306-2.1q-.555-1.111-.924-2.03-.77-1.944-1.534-3.814t-1.443-3.77v1.067q0,1.641-.019,3.263a26.486,26.486,0,0,1-.232,3.229c-.05.432-.1.935-.162,1.508a16,16,0,0,1-.267,1.7,7.219,7.219,0,0,1-.517,1.564,2.369,2.369,0,0,1-.9,1.064,1.576,1.576,0,0,1-.58.228c-.174.025-.367.064-.576.114h-.106a1.783,1.783,0,0,1-1.35-.576,4.777,4.777,0,0,1-.925-1.484,10.648,10.648,0,0,1-.6-2.036q-.222-1.129-.34-2.217c-.079-.727-.129-1.4-.152-2.015s-.033-1.109-.033-1.48q0-.851.068-2.5t.287-3.67q.219-2.021.578-4.169a27.3,27.3,0,0,1,.94-3.95,11.641,11.641,0,0,1,1.418-3.007,2.843,2.843,0,0,1,1.966-1.354,2.385,2.385,0,0,1,1.982.669,8.549,8.549,0,0,1,1.577,2,15.25,15.25,0,0,1,1.173,2.538q.479,1.346.815,2.247.631,1.771,1.232,3.535t1.166,3.617a4.144,4.144,0,0,1,.154.422c.076.232.164.487.266.77q.152.463.38,1.042,0-.511-.019-.727c-.014-.143-.02-.274-.02-.392v-1.318q-.038-1.294-.056-2.591t-.021-2.555c0-.367.006-.878.021-1.535s.049-1.362.114-2.114.159-1.518.285-2.293a11.32,11.32,0,0,1,.555-2.132,5.48,5.48,0,0,1,.927-1.632,2.1,2.1,0,0,1,1.381-.766,2,2,0,0,1,1.7.554,5.294,5.294,0,0,1,1.2,1.811,13.13,13.13,0,0,1,.763,2.584q.282,1.449.445,2.852t.2,2.618C672.7,217.535,672.71,218.169,672.71,218.629Z" transform="translate(-560.462 -206.288)" fill="#cc4e00"/>
  <path id="パス_994" data-name="パス 994" d="M804.348,275.119a8.961,8.961,0,0,1-.131,1.4,5.35,5.35,0,0,1-.5,1.563,3.731,3.731,0,0,1-1,1.255A3.022,3.022,0,0,1,799,279.06a4.694,4.694,0,0,1-.982-1.882,10.52,10.52,0,0,1-.351-2.233q-.056-1.138-.092-1.811-2.666.351-5.259.613a13.634,13.634,0,0,1-.316,1.664,7.956,7.956,0,0,1-.74,1.912,5.51,5.51,0,0,1-1.3,1.591,2.92,2.92,0,0,1-1.946.67,1.852,1.852,0,0,1-1.388-.51,3.373,3.373,0,0,1-.758-1.212,5.248,5.248,0,0,1-.316-1.445q-.055-.744-.055-1.241a16.2,16.2,0,0,1,.332-3.283q.335-1.62.779-3.226c.147-.564.346-1.226.591-1.985a24.694,24.694,0,0,1,.909-2.35,20.789,20.789,0,0,1,1.257-2.394,11.538,11.538,0,0,1,1.649-2.116,7.776,7.776,0,0,1,2.111-1.518,5.849,5.849,0,0,1,2.629-.584,5.616,5.616,0,0,1,2.443.5,6.148,6.148,0,0,1,1.814,1.314,7.642,7.642,0,0,1,1.3,1.854,15.745,15.745,0,0,1,.869,2.1q.354,1.065.593,2.086l.426,1.809q.48,1.9.815,3.84A22.969,22.969,0,0,1,804.348,275.119Zm-7.146-7.094q0-.35-.056-1.153a10.452,10.452,0,0,0-.24-1.606,4.783,4.783,0,0,0-.575-1.43,1.191,1.191,0,0,0-1.055-.628.937.937,0,0,0-.7.394,3.952,3.952,0,0,0-.592.993,10.31,10.31,0,0,0-.463,1.328c-.136.487-.255.954-.353,1.4s-.173.852-.22,1.212-.089.619-.113.774q2.222-.144,4.37-.437Z" transform="translate(-672.658 -249.254)" fill="#cc4e00"/>
  <path id="パス_995" data-name="パス 995" d="M544.171,247c-.278-5.922-5.091-14.542-9.989-14.312s-8.9,9.232-8.622,15.189c.3,6.282,3.854,10.367,9.812,10.088C541.213,257.691,544.468,253.321,544.171,247Zm-9.9,3.77c-1.62,0-2.931-1.25-3.134-4.231s1.182-6.426,3-6.442,3.056,3.68,3.261,6.346S536.337,250.78,534.268,250.772Z" transform="translate(-455.497 -228.34)" fill="#ea9700"/>
</svg>
